# xmcd
#
# Track frame offsets: 
#        155
#        9980
#        22342
#        32502
#        42012
#        51797
#        61435
#        70232
#        80945
#        90705
#        101922
#        111535
#        123032
#        132812
#        142245
#        151915
#        162100
#
# Disc length: 2300 seconds
#
# Revision: 0
# Processed by: cddbd v1.5.2PL0 Copyright (c) Steve Scherf et al.
# Submitted via: ExactAudioCopyFreeDBPlugin 1.0
#
DISCID=ea08fa11
DTITLE=Tommy Ridgley - The Herald Recordings
DYEAR=1992
DGENRE=Blues
TTITLE0=When I Meet My Girl
TTITLE1=I've Heard That Story Before
TTITLE2=Baby Do Little
TTITLE3=Memory Melody
TTITLE4=What'cha Gonna Do
TTITLE5=Alone But Not Lonely
TTITLE6=Tina
TTITLE7=Real Gone Jam
TTITLE8=Just A Memory
TTITLE9=Ding Dong School
TTITLE10=Come Back Baby
TTITLE11=I've Got My Eyes On You
TTITLE12=Lonely Tune
TTITLE13=How I Feel
TTITLE14=Wont'cha Gone
TTITLE15=Baby Do Little (Unreleased)
TTITLE16=Mairzy Doats
EXTD=
EXTT0=
EXTT1=
EXTT2=
EXTT3=
EXTT4=
EXTT5=
EXTT6=
EXTT7=
EXTT8=
EXTT9=
EXTT10=
EXTT11=
EXTT12=
EXTT13=
EXTT14=
EXTT15=
EXTT16=
PLAYORDER=
